<svg xmlns="http://www.w3.org/2000/svg" viewBox="0 0 101.43 25.48"><defs><style>.cls-1{fill:#009444;}.cls-2{fill:#f1f2f2;}.cls-3{fill:#231f20;}</style></defs><g id="Layer_2" data-name="Layer 2"><g id="Layer_1-2" data-name="Layer 1"><path class="cls-1" d="M72,7c-7.56-8.79-21.5.14-34-1.72V5.16C51,6.74,66.49-3,73.43,6.54A12.57,12.57,0,0,0,72,7Z"/><path class="cls-1" d="M75.8,6.48C71.32-6.3,50.85,7,38.27,4.74V4.52c12.92,2.23,33.1-12.32,39,1.55A12.53,12.53,0,0,0,75.8,6.48Z"/><path class="cls-1" d="M67.82,8.9C62.88.23,49.28,7.71,37.66,5.59l0-.11C49.35,7.52,63.88-.42,69.14,8A14.21,14.21,0,0,0,67.82,8.9Z"/><path class="cls-1" d="M74.76,14.35h0a8.56,8.56,0,0,0,2.33.41,9.11,9.11,0,0,0,1.56,0c0-.29-.16-.46-.77-.47l-.58,0A7.41,7.41,0,0,1,75,13.83a9.54,9.54,0,0,1-1.92-.95c-.13-.09-.25-.17-.36-.26-.46-.51-.71-.62-1.12-.36a7.26,7.26,0,0,0,1.27,1.15A7,7,0,0,0,74.76,14.35Z"/><path class="cls-1" d="M78.57,15.52c.13,0,.22,0,.2-.17a1.7,1.7,0,0,0-.06-.31c0-.09-.1-.12-.23-.1A10.52,10.52,0,0,1,77,15a8.19,8.19,0,0,1-2.34-.38,7.16,7.16,0,0,1-1.91-1,7.87,7.87,0,0,1-1.23-1.09c-.07-.08-.14-.12-.23,0a1.49,1.49,0,0,1-.2.15c-.07.06,0,.16,0,.23a11.62,11.62,0,0,1,1.08,2.18,9.44,9.44,0,0,1,.49,4.47l-.09.57c0,.07,0,.14.08.17l.22.07a.15.15,0,0,0,.19-.06,6.86,6.86,0,0,1,3.37-3.9A11.48,11.48,0,0,1,78.57,15.52Z"/><path class="cls-1" d="M70.89,12.86a.56.56,0,0,0-.1.77,10.45,10.45,0,0,1,1,2.5A10,10,0,0,1,72,19.51c0,.36.17.57.42.64a9.76,9.76,0,0,0-1.51-7.29Z"/><path class="cls-1" d="M82.62,14.1a8,8,0,0,0-3.25-4.94,8.2,8.2,0,0,0-2.07-1,8,8,0,0,0-2.13-.41,8.22,8.22,0,0,0-2,.16,8.09,8.09,0,0,0-3.72,14,8.24,8.24,0,0,0,1.82,1.21,8.38,8.38,0,0,0,2.21.7,7.9,7.9,0,0,0,2.94-.09A8.15,8.15,0,0,0,82.62,14.1Zm-6.28,9.24h0a2.88,2.88,0,0,1-2.38-.73,2.14,2.14,0,0,1-.42-1.3c0-.29-.18-.42-.44-.48A2,2,0,0,0,73.78,23a2.07,2.07,0,0,0,.25.15,3.29,3.29,0,0,0,2,.28,6.13,6.13,0,0,1-1,.1,3.18,3.18,0,0,1-1.33-.37A2,2,0,0,1,72.84,21c0-.08,0-.17-.12-.2l-.24-.06c-.13,0-.17.05-.18.11a2.75,2.75,0,0,1-.57,1.06,1.21,1.21,0,0,1-1.31.3L70.11,22a1.3,1.3,0,0,0,1,.08,2,2,0,0,0,1.1-1.44c-.3-.11-.49-.07-.59.13-.51,1.05-1.19,1.19-2,.78l0,0a7.79,7.79,0,0,1-2-8.78c.63-.86,1.38-1.07,2.34-.17.17.16.37.12.6-.1a2.12,2.12,0,0,0-1.61-1,1.35,1.35,0,0,0-1,.67c.07-.14.15-.28.23-.41.84-.88,1.7-.42,2.43.48,0,.05.1.09.21,0l.2-.15c.11-.08.06-.16,0-.24a2.16,2.16,0,0,1,1-3.34q.34-.13.72-.24a3,3,0,0,0-1.47,1,2.13,2.13,0,0,0,0,2.63.5.5,0,0,0,.21-.65c-.67-1.78.41-2.56,1.7-3.09h.06A7.5,7.5,0,0,1,75.07,8a7.3,7.3,0,0,1,2.14.39A7.62,7.62,0,0,1,79.28,9.4a7.73,7.73,0,0,1,1.31,1.18c.57,1.23,1,2.45-1.07,3.43-.19.07-.33.21-.31.35l.05.27a2.52,2.52,0,0,0,2.11-1.87A3,3,0,0,0,81,11.1l.16.23c.7,1.51.52,2.77-1.74,3.43a.14.14,0,0,0-.13.19c0,.08,0,.16,0,.24s.08.13.19.12c1.67-.27,2.71.23,2.86,1.82a2.71,2.71,0,0,1-.09.41,1.76,1.76,0,0,0-.22-1.1c-.57-.89-1.45-1.05-2.67-.93,0,.1,0,.16.06.27s.22.21.43.21c2.12,0,2.3,1.45,2.17,2.33v0A7.75,7.75,0,0,1,76.34,23.34Z"/><path class="cls-1" d="M76.35,16.62a6.09,6.09,0,0,0-1,.8,7.48,7.48,0,0,0-2,3c.47.08.63-.19.92-.83a7.43,7.43,0,0,1,1.75-2,7.55,7.55,0,0,1,2.36-1.29c.55-.25.59-.45.51-.74A10.75,10.75,0,0,0,76.35,16.62Z"/><path class="cls-1" d="M0,3.77H36.28a4.07,4.07,0,0,1,4.07,4.07V25.48a0,0,0,0,1,0,0H0a0,0,0,0,1,0,0V3.77A0,0,0,0,1,0,3.77Z"/><path class="cls-2" d="M3.55,20.37H6.29v2.74H3.55Z"/><path class="cls-2" d="M8.78,11h2.7V23.11H8.78Zm6.11,4.22a2,2,0,0,0-.45-1.41,1.64,1.64,0,0,0-1.29-.49,1.64,1.64,0,0,0-1.25.47,2,2,0,0,0-.42,1.36l-.25-2a4,4,0,0,1,1.23-1.72,2.89,2.89,0,0,1,1.79-.59,3,3,0,0,1,2.45,1.06,4.66,4.66,0,0,1,.87,3v8.28H14.89Z"/><path class="cls-2" d="M22.31,22.75a3.76,3.76,0,0,1-1.57-1.59,5.52,5.52,0,0,1-.54-2.55v-3A6.06,6.06,0,0,1,20.72,13a3.71,3.71,0,0,1,1.53-1.67,4.68,4.68,0,0,1,2.41-.58,4.38,4.38,0,0,1,2.34.61,3.89,3.89,0,0,1,1.47,1.8A7.07,7.07,0,0,1,29,16v2.09H22.12v-2h4.33l0-.76a2.41,2.41,0,0,0-.5-1.56,1.65,1.65,0,0,0-1.31-.58,1.73,1.73,0,0,0-1.43.63,2.69,2.69,0,0,0-.5,1.74v3.17a2.21,2.21,0,0,0,.54,1.6,2,2,0,0,0,1.51.56,1.74,1.74,0,0,0,1.09-.32,1.82,1.82,0,0,0,.65-.94l2.32.82a3.48,3.48,0,0,1-1.36,2.16,4.53,4.53,0,0,1-2.67.72A5.31,5.31,0,0,1,22.31,22.75Z"/><path class="cls-2" d="M30.68,11h5.56v2.41H30.68Zm1.93,11.41A3.46,3.46,0,0,1,31.88,20V7.41h2.68V19.65a1.1,1.1,0,0,0,.2.7.66.66,0,0,0,.55.25h.93v2.57H34.88A2.89,2.89,0,0,1,32.61,22.36Z"/><path class="cls-3" d="M46.55,22.87a4.39,4.39,0,0,1-1.78-1.25,4.9,4.9,0,0,1-1-2l2.55-1.12a3.26,3.26,0,0,0,1,1.67,2.8,2.8,0,0,0,1.77.56A2.94,2.94,0,0,0,51,20.19a1.79,1.79,0,0,0,.65-1.47V18a1.72,1.72,0,0,0-.34-1.1,2.27,2.27,0,0,0-.92-.67,14.47,14.47,0,0,0-1.51-.51l0,0,0,0-.14,0a12.86,12.86,0,0,1-2.29-.82,3.85,3.85,0,0,1-1.5-1.35A4.32,4.32,0,0,1,44.2,11v-.47A4.85,4.85,0,0,1,44.8,8a3.93,3.93,0,0,1,1.77-1.57,6.69,6.69,0,0,1,2.78-.53,5.59,5.59,0,0,1,2.19.4,4,4,0,0,1,1.59,1.19,5.5,5.5,0,0,1,.94,2l-2.42,1.13A3.4,3.4,0,0,0,50.7,9a2.13,2.13,0,0,0-1.43-.53A2.85,2.85,0,0,0,47.48,9a1.67,1.67,0,0,0-.62,1.4v.54a1.7,1.7,0,0,0,.37,1.14,2.64,2.64,0,0,0,.94.7,14,14,0,0,0,1.57.53l.12,0,.11.06h.11l.09,0a13.37,13.37,0,0,1,2.14.85,3.87,3.87,0,0,1,1.41,1.33A4.34,4.34,0,0,1,54.3,18v.76a4.73,4.73,0,0,1-.62,2.48,4,4,0,0,1-1.8,1.57,7,7,0,0,1-2.86.53A6.73,6.73,0,0,1,46.55,22.87Z"/><path class="cls-3" d="M58.69,22.78a3.6,3.6,0,0,1-1.56-1.53,5.14,5.14,0,0,1-.54-2.44V15.29a5.21,5.21,0,0,1,.54-2.45,3.59,3.59,0,0,1,1.56-1.55,5.32,5.32,0,0,1,2.46-.53,5.55,5.55,0,0,1,2.08.35,3.11,3.11,0,0,1,1.38,1.1A4.27,4.27,0,0,1,65.3,14l-2.46.8a2.23,2.23,0,0,0-.58-1.18,1.57,1.57,0,0,0-1.11-.39,1.8,1.8,0,0,0-1.37.53,2.16,2.16,0,0,0-.5,1.55v3.41a2.09,2.09,0,0,0,.49,1.49,1.8,1.8,0,0,0,1.38.52,1.65,1.65,0,0,0,1.12-.38,2,2,0,0,0,.57-1.13l2.47.84a4,4,0,0,1-.69,1.8A3.07,3.07,0,0,1,63.23,23a5.63,5.63,0,0,1-2.08.34A5.45,5.45,0,0,1,58.69,22.78Z"/><path class="cls-3" d="M84.3,11H87V23.11H84.3Zm5.76,2.55a2.43,2.43,0,0,0-.64-.08,2.33,2.33,0,0,0-1.75.64A2.44,2.44,0,0,0,87,15.81l-.25-2.74a4.45,4.45,0,0,1,1.41-1.71,3.22,3.22,0,0,1,1.91-.61,2,2,0,0,1,.71.12,1.85,1.85,0,0,1,.57.36l-.85,2.5A1.34,1.34,0,0,0,90.06,13.5Z"/><path class="cls-3" d="M94.76,22.75a3.71,3.71,0,0,1-1.57-1.59,5.4,5.4,0,0,1-.55-2.55v-3A6.06,6.06,0,0,1,93.17,13a3.74,3.74,0,0,1,1.52-1.67,4.71,4.71,0,0,1,2.42-.58,4.32,4.32,0,0,1,2.33.61,3.85,3.85,0,0,1,1.48,1.8,7.07,7.07,0,0,1,.51,2.82v2.09H94.56v-2H98.9v-.76a2.35,2.35,0,0,0-.5-1.56,1.63,1.63,0,0,0-1.3-.58,1.71,1.71,0,0,0-1.43.63,2.69,2.69,0,0,0-.51,1.74v3.17a2.21,2.21,0,0,0,.54,1.6,2,2,0,0,0,1.51.56,1.77,1.77,0,0,0,1.1-.32,1.88,1.88,0,0,0,.65-.94l2.32.82a3.49,3.49,0,0,1-1.37,2.16,4.52,4.52,0,0,1-2.66.72A5.28,5.28,0,0,1,94.76,22.75Z"/></g></g></svg>